<svg width="165" height="50" viewBox="0 0 165 50" fill="none" xmlns="http://www.w3.org/2000/svg">
<g clip-path="url(#clip0_1291_1306)">
<rect width="40" height="40" transform="translate(0 5)" fill="#0066CC"/>
<path d="M19.1558 37.8998C19.1237 37.9835 18.9911 38 18.3622 38C17.947 38 17.5879 37.981 17.5647 37.9575C17.5409 37.9347 17.5216 37.5635 17.5216 37.1328V36.3505H16.7247C16.6629 36.3505 16.6056 36.3505 16.5529 36.3511C16.2091 36.3531 16.0321 36.3537 15.942 36.2674C15.8468 36.176 15.8474 35.9876 15.8487 35.6C15.8487 35.5435 15.8493 35.482 15.8487 35.4167L15.848 34.7683L16.6687 34.7505L17.4894 34.7327L17.5068 33.1308L17.5235 31.5289H24.0432C29.0277 31.5289 30.5802 31.5112 30.6394 31.4528C30.6909 31.4021 30.7167 31.1254 30.7167 30.6281V29.8794H32.3258V15.2244H30.7167V13.6383H32.322L32.34 14.4472L32.358 15.2561L34 15.2916L33.9672 29.8477L33.1484 29.8655L32.3297 29.8833L32.3117 30.6585L32.2936 31.4338L31.5856 31.4731C31.1962 31.4953 30.8448 31.5162 30.8042 31.5207C30.7553 31.5264 30.7225 31.77 30.7064 32.2427C30.6935 32.6354 30.6594 32.9919 30.6317 33.0357C30.5912 33.0979 29.3714 33.115 24.8877 33.115H19.1951V35.4573C19.1951 36.7451 19.1777 37.8446 19.1558 37.8998ZM9.26852 14.4155L9.2505 15.1927L8.46073 15.2104C7.84603 15.2244 7.66387 15.2092 7.63748 15.1432C7.61946 15.0962 7.61302 14.7454 7.62267 14.3641L7.64134 13.6701L9.28268 13.6345V12.0523L10.8114 12.0485C11.652 12.0466 15.3814 12.0301 19.0985 12.0111C22.8157 11.9927 26.9371 11.9977 28.2566 12.0225L30.6562 12.0669L30.6381 12.8371L30.6201 13.6066L19.9533 13.6225L9.28654 13.639L9.26852 14.4155ZM20.8075 26.2055L20.7721 28.1982L20.0351 28.2363L19.9997 26.2315L19.1951 26.1935V24.1697H17.1354V23.3449H15.0757V22.5868L17.1032 22.5519L17.1412 21.7621L19.1629 21.7272L19.1983 19.7288H19.5761C19.8613 19.7288 19.963 19.704 19.9926 19.6285C20.0145 19.5733 20.0319 19.1165 20.0319 18.6134V17.6986H20.801L20.8364 19.697L21.2387 19.7161L21.641 19.7351V21.7589H23.6943L23.7329 22.5519L24.7499 22.5697L25.7669 22.5868L25.7476 22.9503L25.7283 23.3132L23.7065 23.3481L23.6686 24.138L21.6442 24.1729L21.6088 26.1681L20.8075 26.2055ZM7.6098 15.2878L7.57698 29.8477L6.83354 29.8655C6.42417 29.875 6.06952 29.8636 6.04506 29.8388C6.01995 29.8147 6 26.531 6 22.5411V15.2878H7.6098ZM15.8519 33.115L15.8159 34.7327L15.0274 34.7505L14.2389 34.7683L14.2382 34.0844C14.2376 33.7082 14.2196 33.3364 14.1983 33.2584L14.1597 33.1163L11.7376 33.0998L9.31487 33.0833L9.29684 32.3245C9.28461 31.8151 9.25243 31.5492 9.20029 31.5162C9.15717 31.4896 8.79929 31.4668 8.40473 31.4668C7.81062 31.4655 7.6806 31.4484 7.64842 31.3653C7.62654 31.3101 7.60916 30.9529 7.60916 30.5722V29.8794H9.28268V31.5289H14.1745V33.115H15.8519ZM25.765 27.4097L25.7283 28.6423L25.3717 28.6607C25.1754 28.6715 24.9945 28.6595 24.9694 28.6347C24.9443 28.61 24.9237 28.3239 24.9237 27.9997V27.4103L23.7329 27.3735L23.7136 27.0112L23.6943 26.649L24.2929 26.6306L24.8915 26.6122L24.9102 25.9936L24.9282 25.3751H25.756L25.774 25.9936L25.7926 26.6122L26.3913 26.6306L26.9899 26.649L26.9706 27.0112L26.9512 27.3735L25.765 27.4097ZM15.8345 19.1102L15.8159 19.697L15.0757 19.7351V18.5284L14.4803 18.51L13.8849 18.4916L13.8469 17.7037L15.0435 17.6669L15.0621 17.0452L15.0802 16.4234L15.4483 16.4425L15.8159 16.4615L15.8802 17.6669L16.5078 17.6853L17.1354 17.7031V18.0374C17.1354 18.2207 17.1006 18.4054 17.0581 18.4472C17.0099 18.4948 16.7698 18.5234 16.417 18.5234H15.8532L15.8345 19.1102ZM15.8538 27.4109L15.8159 28.1982L15.4458 28.2173L15.0757 28.2363V27.4052H14.2389V26.6503L15.0435 26.6122L15.0628 26.2157L15.0821 25.8192H15.8416L15.8609 26.2157L15.8802 26.6122L16.2857 26.6312L16.6912 26.6503L16.6719 27.0119L16.6526 27.3735L15.8538 27.4109ZM27.8266 20.9341L27.788 21.7272L27.4314 21.7456C27.2351 21.7564 27.0542 21.7443 27.0291 21.7196C27.004 21.6948 26.9834 21.5077 26.9834 21.304V20.9341H27.8266ZM13.0224 22.5836L12.9837 23.3132L12.5815 23.3322L12.1792 23.3513V22.5836H13.0224ZM25.3099 18.5234V19.2847H24.5375V18.5234H25.3099Z" fill="white"/>
</g>
<path d="M58.2955 36.5V13.2273H62.5114V23.9205H62.7955L71.875 13.2273H77.0227L68.0227 23.6705L77.1023 36.5H72.0341L65.0909 26.5227L62.5114 29.5682V36.5H58.2955ZM82.2835 13.2273V36.5H78.1699V13.2273H82.2835ZM89.9364 36.8523C88.8303 36.8523 87.8341 36.6553 86.9477 36.2614C86.0689 35.8598 85.372 35.2689 84.8568 34.4886C84.3492 33.7083 84.0955 32.7462 84.0955 31.6023C84.0955 30.6174 84.2773 29.803 84.6409 29.1591C85.0045 28.5152 85.5008 28 86.1295 27.6136C86.7583 27.2273 87.4667 26.9356 88.2545 26.7386C89.05 26.5341 89.872 26.3864 90.7205 26.2955C91.7432 26.1894 92.5727 26.0947 93.2091 26.0114C93.8455 25.9205 94.3076 25.7841 94.5955 25.6023C94.8909 25.4129 95.0386 25.1212 95.0386 24.7273V24.6591C95.0386 23.803 94.7848 23.1402 94.2773 22.6705C93.7697 22.2008 93.0386 21.9659 92.0841 21.9659C91.0765 21.9659 90.2773 22.1856 89.6864 22.625C89.103 23.0644 88.7091 23.5833 88.5045 24.1818L84.6636 23.6364C84.9667 22.5758 85.4667 21.6894 86.1636 20.9773C86.8606 20.2576 87.7129 19.7197 88.7205 19.3636C89.728 19 90.8417 18.8182 92.0614 18.8182C92.9023 18.8182 93.7394 18.9167 94.5727 19.1136C95.4061 19.3106 96.1674 19.6364 96.8568 20.0909C97.5462 20.5379 98.0992 21.1477 98.5159 21.9205C98.9402 22.6932 99.1523 23.6591 99.1523 24.8182V36.5H95.1977V34.1023H95.0614C94.8114 34.5871 94.4591 35.0417 94.0045 35.4659C93.5576 35.8826 92.9932 36.2197 92.3114 36.4773C91.6371 36.7273 90.8455 36.8523 89.9364 36.8523ZM91.0045 33.8295C91.8303 33.8295 92.5462 33.6667 93.1523 33.3409C93.7583 33.0076 94.2242 32.5682 94.55 32.0227C94.8833 31.4773 95.05 30.8826 95.05 30.2386V28.1818C94.9212 28.2879 94.7015 28.3864 94.3909 28.4773C94.0879 28.5682 93.747 28.6477 93.3682 28.7159C92.9894 28.7841 92.6144 28.8447 92.2432 28.8977C91.872 28.9508 91.55 28.9962 91.2773 29.0341C90.6636 29.1174 90.1144 29.2538 89.6295 29.4432C89.1447 29.6326 88.7621 29.8977 88.4818 30.2386C88.2015 30.572 88.0614 31.0038 88.0614 31.5341C88.0614 32.2917 88.3379 32.8636 88.8909 33.25C89.4439 33.6364 90.1485 33.8295 91.0045 33.8295ZM101.689 36.5V19.0455H105.677V21.9545H105.859C106.177 20.947 106.723 20.1705 107.495 19.625C108.276 19.072 109.166 18.7955 110.166 18.7955C110.393 18.7955 110.647 18.8068 110.927 18.8295C111.215 18.8447 111.454 18.8712 111.643 18.9091V22.6932C111.469 22.6326 111.192 22.5795 110.814 22.5341C110.442 22.4811 110.083 22.4545 109.734 22.4545C108.984 22.4545 108.31 22.6174 107.711 22.9432C107.12 23.2614 106.655 23.7045 106.314 24.2727C105.973 24.8409 105.802 25.4962 105.802 26.2386V36.5H101.689ZM119.671 36.8409C117.966 36.8409 116.489 36.4659 115.239 35.7159C113.989 34.9659 113.02 33.9167 112.33 32.5682C111.648 31.2197 111.307 29.6439 111.307 27.8409C111.307 26.0379 111.648 24.4583 112.33 23.1023C113.02 21.7462 113.989 20.6932 115.239 19.9432C116.489 19.1932 117.966 18.8182 119.671 18.8182C121.376 18.8182 122.853 19.1932 124.103 19.9432C125.353 20.6932 126.319 21.7462 127.001 23.1023C127.69 24.4583 128.035 26.0379 128.035 27.8409C128.035 29.6439 127.69 31.2197 127.001 32.5682C126.319 33.9167 125.353 34.9659 124.103 35.7159C122.853 36.4659 121.376 36.8409 119.671 36.8409ZM119.694 33.5455C120.618 33.5455 121.391 33.2917 122.012 32.7841C122.633 32.2689 123.095 31.5795 123.398 30.7159C123.709 29.8523 123.864 28.8902 123.864 27.8295C123.864 26.7614 123.709 25.7955 123.398 24.9318C123.095 24.0606 122.633 23.3674 122.012 22.8523C121.391 22.3371 120.618 22.0795 119.694 22.0795C118.747 22.0795 117.959 22.3371 117.33 22.8523C116.709 23.3674 116.243 24.0606 115.932 24.9318C115.629 25.7955 115.478 26.7614 115.478 27.8295C115.478 28.8902 115.629 29.8523 115.932 30.7159C116.243 31.5795 116.709 32.2689 117.33 32.7841C117.959 33.2917 118.747 33.5455 119.694 33.5455ZM139.434 36.5H134.934L143.127 13.2273H148.332L156.536 36.5H152.036L145.82 18H145.639L139.434 36.5ZM139.582 27.375H151.855V30.7614H139.582V27.375ZM162.218 13.2273V36.5H158.002V13.2273H162.218Z" fill="black"/>
<defs>
<clipPath id="clip0_1291_1306">
<rect y="5" width="40" height="40" rx="8" fill="white"/>
</clipPath>
</defs>
</svg>
