<svg width="200" height="50" viewBox="0 0 200 50" fill="none" xmlns="http://www.w3.org/2000/svg">
<g clip-path="url(#clip0_1291_1306)">
<rect width="50" height="50" fill="#0066CC"/>
<path d="M23.9146 44.8689C23.8733 44.9784 23.7028 45 22.8943 45C22.3605 45 21.8987 44.9751 21.8689 44.9444C21.8383 44.9146 21.8135 44.4292 21.8135 43.8659V42.843H20.7889C20.7095 42.843 20.6358 42.843 20.568 42.8438C20.126 42.8463 19.8985 42.8471 19.7826 42.7343C19.6601 42.6148 19.661 42.3684 19.6626 41.8615C19.6626 41.7877 19.6634 41.7072 19.6626 41.6218L19.6618 40.7739L20.7169 40.7507L21.7721 40.7274L21.7944 38.6326L21.8159 36.5378H30.1984C36.607 36.5378 38.6031 36.5146 38.6793 36.4383C38.7455 36.3719 38.7786 36.0102 38.7786 35.3598V34.3808H40.8475V15.2165H38.7786V13.1424H40.8425L40.8657 14.2002L40.8889 15.258L43 15.3044L42.9578 34.3393L41.9051 34.3626L40.8525 34.3858L40.8293 35.3996L40.8061 36.4134L39.8958 36.4648C39.3951 36.4939 38.9433 36.5212 38.8911 36.5271C38.8282 36.5345 38.786 36.8531 38.7653 37.4712C38.7488 37.9847 38.7049 38.4509 38.6693 38.5082C38.6172 38.5895 37.049 38.6119 31.2841 38.6119H23.9651V41.6749C23.9651 43.359 23.9428 44.7967 23.9146 44.8689ZM11.2024 14.1587L11.1792 15.175L10.1638 15.1983C9.37346 15.2165 9.13926 15.1966 9.10533 15.1103C9.08216 15.0489 9.07388 14.5901 9.0863 14.0915L9.1103 13.1839L11.2206 13.1375V11.0684L13.1861 11.0634C14.2669 11.0609 19.0618 11.0393 23.841 11.0145C28.6202 10.9904 33.9191 10.997 35.6156 11.0294L38.7008 11.0875L38.6776 12.0946L38.6544 13.101L24.94 13.1217L11.2256 13.1433L11.2024 14.1587ZM26.0382 29.5765L25.9927 32.1823L25.0451 32.2321L24.9996 29.6105L23.9651 29.5607V26.9142H21.3169V25.8357H18.6687V24.8443L21.2755 24.7987L21.3244 23.7658L23.9237 23.7201L23.9693 21.1068H24.455C24.8217 21.1068 24.9524 21.0745 24.9905 20.9758C25.0186 20.9036 25.041 20.3062 25.041 19.6484V18.452H26.0299L26.0754 21.0654L26.5927 21.0902L27.1099 21.1151V23.7616H29.7498L29.7995 24.7987L31.107 24.8219L32.4146 24.8443L32.3898 25.3197L32.3649 25.7942L29.7655 25.8398L29.7167 26.8727L27.114 26.9183L27.0685 29.5275L26.0382 29.5765ZM9.06975 15.2995L9.02754 34.3393L8.0717 34.3626C7.54537 34.375 7.08938 34.3601 7.05793 34.3277C7.02566 34.2962 7 30.0021 7 24.7846V15.2995H9.06975ZM19.6667 38.6119L19.6204 40.7274L18.6066 40.7507L17.5929 40.7739L17.592 39.8796C17.5912 39.3876 17.568 38.9014 17.5407 38.7994L17.4911 38.6136L14.3769 38.592L11.262 38.5704L11.2388 37.5782C11.2231 36.912 11.1817 36.5644 11.1147 36.5212C11.0592 36.4864 10.5991 36.4565 10.0918 36.4565C9.32795 36.4549 9.16078 36.4325 9.1194 36.3238C9.09126 36.2516 9.06892 35.7845 9.06892 35.2868V34.3808H11.2206V36.5378H17.5101V38.6119H19.6667ZM32.4121 31.1511L32.3649 32.763L31.9065 32.7871C31.6541 32.8012 31.4215 32.7854 31.3892 32.7531C31.357 32.7207 31.3305 32.3466 31.3305 31.9226V31.1519L29.7995 31.1038L29.7746 30.6301L29.7498 30.1564L30.5195 30.1323L31.2891 30.1083L31.3131 29.2994L31.3363 28.4905H32.4005L32.4237 29.2994L32.4477 30.1083L33.2173 30.1323L33.987 30.1564L33.9621 30.6301L33.9373 31.1038L32.4121 31.1511ZM19.6444 20.2979L19.6204 21.0654L18.6687 21.1151V19.5372L17.9032 19.5131L17.1377 19.4891L17.0889 18.4587L18.6273 18.4106L18.6513 17.5975L18.6745 16.7845L19.1479 16.8094L19.6204 16.8343L19.7032 18.4106L20.51 18.4346L21.3169 18.4578V18.8951C21.3169 19.1348 21.2722 19.3762 21.2176 19.431C21.1555 19.4932 20.8469 19.5305 20.3933 19.5305H19.6684L19.6444 20.2979ZM19.6692 31.1527L19.6204 32.1823L19.1445 32.2072L18.6687 32.2321V31.1453H17.5929V30.158L18.6273 30.1083L18.6521 29.5897L18.677 29.0712H19.6535L19.6783 29.5897L19.7032 30.1083L20.2245 30.1331L20.7459 30.158L20.7211 30.6309L20.6962 31.1038L19.6692 31.1527ZM35.0628 22.6831L35.0131 23.7201L34.5547 23.7442C34.3023 23.7583 34.0697 23.7425 34.0374 23.7102C34.0052 23.6778 33.9787 23.4331 33.9787 23.1668V22.6831H35.0628ZM16.0288 24.8401L15.9791 25.7942L15.4619 25.8191L14.9446 25.844V24.8401H16.0288ZM31.827 19.5305V20.5261H30.8339V19.5305H31.827Z" fill="white"/>
</g>
<path d="M62.5284 40V10.9091H68.679V23.7358H69.0625L79.5312 10.9091H86.9034L76.108 23.9347L87.0312 40H79.6733L71.7045 28.0398L68.679 31.733V40H62.5284ZM94.044 10.9091V40H87.9929V10.9091H94.044ZM103.113 40.4119C101.721 40.4119 100.48 40.1705 99.3913 39.6875C98.3023 39.1951 97.4406 38.4706 96.8061 37.5142C96.1811 36.5483 95.8686 35.3456 95.8686 33.9062C95.8686 32.6941 96.0911 31.6761 96.5362 30.8523C96.9813 30.0284 97.5874 29.3655 98.3544 28.8636C99.1214 28.3617 99.9927 27.983 100.968 27.7273C101.953 27.4716 102.985 27.2917 104.065 27.1875C105.334 27.0549 106.356 26.9318 107.133 26.8182C107.909 26.6951 108.473 26.5152 108.823 26.2784C109.174 26.0417 109.349 25.6913 109.349 25.2273V25.142C109.349 24.2424 109.065 23.5464 108.496 23.054C107.938 22.5616 107.142 22.3153 106.11 22.3153C105.021 22.3153 104.155 22.5568 103.511 23.0398C102.867 23.5133 102.441 24.1098 102.232 24.8295L96.6357 24.375C96.9197 23.0492 97.4785 21.9034 98.3118 20.9375C99.1451 19.9621 100.22 19.214 101.536 18.6932C102.862 18.1629 104.396 17.8977 106.138 17.8977C107.351 17.8977 108.511 18.0398 109.619 18.3239C110.736 18.608 111.726 19.0483 112.587 19.6449C113.459 20.2415 114.145 21.0085 114.647 21.946C115.149 22.8741 115.4 23.9867 115.4 25.2841V40H109.661V36.9744H109.491C109.14 37.6562 108.672 38.2576 108.085 38.7784C107.497 39.2898 106.792 39.6922 105.968 39.9858C105.144 40.2699 104.192 40.4119 103.113 40.4119ZM104.846 36.2358C105.736 36.2358 106.522 36.0606 107.204 35.7102C107.886 35.3504 108.421 34.8674 108.809 34.2614C109.197 33.6553 109.391 32.9687 109.391 32.2017V29.8864C109.202 30.0095 108.942 30.1231 108.61 30.2273C108.288 30.322 107.924 30.4119 107.516 30.4972C107.109 30.5729 106.702 30.6439 106.295 30.7102C105.888 30.767 105.518 30.8191 105.187 30.8665C104.477 30.9706 103.856 31.1364 103.326 31.3636C102.796 31.5909 102.384 31.8987 102.09 32.2869C101.797 32.6657 101.65 33.1392 101.65 33.7074C101.65 34.5312 101.948 35.161 102.545 35.5966C103.151 36.0227 103.918 36.2358 104.846 36.2358ZM118.094 40V18.1818H123.961V21.9886H124.188C124.586 20.6345 125.254 19.6117 126.191 18.9205C127.129 18.2197 128.208 17.8693 129.43 17.8693C129.733 17.8693 130.059 17.8883 130.41 17.9261C130.76 17.964 131.068 18.0161 131.333 18.0824V23.4517C131.049 23.3665 130.656 23.2907 130.154 23.2244C129.652 23.1581 129.193 23.125 128.776 23.125C127.886 23.125 127.091 23.3191 126.39 23.7074C125.699 24.0862 125.149 24.6165 124.742 25.2983C124.344 25.9801 124.146 26.7661 124.146 27.6562V40H118.094ZM141.304 40.4261C139.098 40.4261 137.189 39.9574 135.58 39.0199C133.979 38.0729 132.743 36.7566 131.872 35.071C131.001 33.3759 130.565 31.411 130.565 29.1761C130.565 26.9223 131.001 24.9527 131.872 23.267C132.743 21.572 133.979 20.2557 135.58 19.3182C137.189 18.3712 139.098 17.8977 141.304 17.8977C143.51 17.8977 145.414 18.3712 147.014 19.3182C148.624 20.2557 149.865 21.572 150.736 23.267C151.607 24.9527 152.043 26.9223 152.043 29.1761C152.043 31.411 151.607 33.3759 150.736 35.071C149.865 36.7566 148.624 38.0729 147.014 39.0199C145.414 39.9574 143.51 40.4261 141.304 40.4261ZM141.332 35.7386C142.336 35.7386 143.174 35.4545 143.847 34.8864C144.519 34.3087 145.026 33.5227 145.366 32.5284C145.717 31.5341 145.892 30.4025 145.892 29.1335C145.892 27.8646 145.717 26.733 145.366 25.7386C145.026 24.7443 144.519 23.9583 143.847 23.3807C143.174 22.803 142.336 22.5142 141.332 22.5142C140.319 22.5142 139.467 22.803 138.776 23.3807C138.094 23.9583 137.578 24.7443 137.227 25.7386C136.886 26.733 136.716 27.8646 136.716 29.1335C136.716 30.4025 136.886 31.5341 137.227 32.5284C137.578 33.5227 138.094 34.3087 138.776 34.8864C139.467 35.4545 140.319 35.7386 141.332 35.7386ZM166.363 40H159.772L169.815 10.9091H177.741L187.769 40H181.178L173.891 17.5568H173.664L166.363 40ZM165.951 28.5653H181.519V33.3665H165.951V28.5653ZM195.421 10.9091V40H189.271V10.9091H195.421Z" fill="black"/>
<defs>
<clipPath id="clip0_1291_1306">
<rect width="50" height="50" rx="10" fill="white"/>
</clipPath>
</defs>
</svg>
