<svg width="206" height="50" viewBox="0 0 206 50" fill="none" xmlns="http://www.w3.org/2000/svg">
<g clip-path="url(#clip0_1291_1306)">
<rect width="50" height="50" fill="#0066CC"/>
<path d="M23.9749 41.8766C23.9359 41.9797 23.7749 42 23.0112 42C22.5071 42 22.071 41.9766 22.0429 41.9477C22.0139 41.9196 21.9905 41.4628 21.9905 40.9326V39.9699H21.0229C20.9478 39.9699 20.8783 39.9699 20.8142 39.9706C20.3968 39.973 20.1819 39.9738 20.0725 39.8676C19.9568 39.7551 19.9576 39.5232 19.9591 39.0461C19.9591 38.9767 19.9599 38.9009 19.9591 38.8205L19.9583 38.0225L20.9549 38.0006L21.9514 37.9788L21.9725 36.0072L21.9928 34.0356H29.9096C35.9622 34.0356 37.8474 34.0137 37.9193 33.9419C37.9818 33.8794 38.0131 33.539 38.0131 32.9268V32.0055H39.9671V13.9685H38.0131V12.0164H39.9624L39.9843 13.012L40.0062 14.0075L42 14.0512L41.9601 31.9664L40.966 31.9883L39.9718 32.0102L39.9499 32.9643L39.928 33.9185L39.0683 33.9669C38.5954 33.9942 38.1686 34.02 38.1194 34.0255C38.06 34.0325 38.0201 34.3323 38.0006 34.914C37.985 35.3974 37.9435 35.8362 37.9099 35.8901C37.8607 35.9666 36.3796 35.9877 30.935 35.9877H24.0226V38.8705C24.0226 40.4555 24.0015 41.8087 23.9749 41.8766ZM11.9689 12.9729L11.947 13.9294L10.988 13.9513C10.2416 13.9685 10.0204 13.9497 9.98837 13.8685C9.96648 13.8107 9.95867 13.379 9.97039 12.9097L9.99306 12.0555L11.9861 12.0117V10.0644L13.8424 10.0597C14.8632 10.0573 19.3917 10.037 23.9054 10.0136C28.4191 9.99096 33.4236 9.99721 35.0259 10.0277L37.9396 10.0823L37.9178 11.0302L37.8959 11.9774L24.9433 11.9969L11.9908 12.0172L11.9689 12.9729ZM25.9805 27.4837L25.9375 29.9363L25.0426 29.9831L24.9996 27.5157L24.0226 27.4689V24.9781H21.5215V23.963H19.0204V23.0299L21.4824 22.987L21.5286 22.0148L23.9835 21.9719L24.0265 19.5123H24.4853C24.8316 19.5123 24.9551 19.4819 24.991 19.3889C25.0176 19.321 25.0387 18.7588 25.0387 18.1396V17.0137H25.9727L26.0157 19.4733L26.5042 19.4967L26.9927 19.5201V22.0109H29.4859L29.5328 22.987L30.7678 23.0088L32.0027 23.0299L31.9792 23.4773L31.9558 23.924L29.5008 23.9669L29.4547 24.939L26.9966 24.982L26.9536 27.4377L25.9805 27.4837ZM9.95476 14.0466L9.9149 31.9664L9.01216 31.9883C8.51507 32 8.08441 31.986 8.05471 31.9555C8.02423 31.9258 8 27.8843 8 22.9737V14.0466H9.95476ZM19.963 35.9877L19.9193 37.9788L18.9618 38.0006L18.0044 38.0225L18.0036 37.1808C18.0028 36.7177 17.9809 36.2602 17.9551 36.1641L17.9082 35.9892L14.9671 35.9689L12.0252 35.9486L12.0033 35.0148C11.9885 34.3878 11.9494 34.0606 11.8861 34.02C11.8337 33.9872 11.3991 33.9591 10.92 33.9591C10.1986 33.9575 10.0407 33.9364 10.0017 33.8342C9.97508 33.7662 9.95398 33.3266 9.95398 32.8581V32.0055H11.9861V34.0356H17.9262V35.9877H19.963ZM32.0003 28.9657L31.9558 30.4829L31.5228 30.5055C31.2844 30.5188 31.0648 30.504 31.0343 30.4735C31.0038 30.443 30.9788 30.0909 30.9788 29.6919V28.9665L29.5328 28.9212L29.5094 28.4754L29.4859 28.0295L30.2128 28.0069L30.9397 27.9842L30.9624 27.2229L30.9843 26.4616H31.9894L32.0113 27.2229L32.0339 27.9842L32.7608 28.0069L33.4877 28.0295L33.4642 28.4754L33.4408 28.9212L32.0003 28.9657ZM19.9419 18.751L19.9193 19.4733L19.0204 19.5201V18.035L18.2975 18.0124L17.5745 17.9897L17.5284 17.0199L18.9814 16.9746L19.004 16.2094L19.0259 15.4442L19.473 15.4677L19.9193 15.4911L19.9974 16.9746L20.7595 16.9973L21.5215 17.0191V17.4306C21.5215 17.6563 21.4793 17.8835 21.4277 17.9351C21.3691 17.9936 21.0776 18.0287 20.6493 18.0287H19.9646L19.9419 18.751ZM19.9654 28.9673L19.9193 29.9363L19.4699 29.9597L19.0204 29.9831V28.9603H18.0044V28.0311L18.9814 27.9842L19.0048 27.4962L19.0283 27.0082H19.9505L19.974 27.4962L19.9974 27.9842L20.4898 28.0077L20.9822 28.0311L20.9588 28.4762L20.9353 28.9212L19.9654 28.9673ZM34.5038 20.9959L34.4569 21.9719L34.0239 21.9945C33.7855 22.0078 33.5659 21.993 33.5354 21.9625C33.5049 21.9321 33.4799 21.7017 33.4799 21.4511V20.9959H34.5038ZM16.5272 23.026L16.4803 23.924L15.9918 23.9474L15.5033 23.9708V23.026H16.5272ZM31.4477 18.0287V18.9657H30.5098V18.0287H31.4477Z" fill="white"/>
</g>
<path d="M72.8693 40V10.9091H78.1392V24.2756H78.4943L89.8438 10.9091H96.2784L85.0284 23.9631L96.3778 40H90.0426L81.3636 27.5284L78.1392 31.3352V40H72.8693ZM102.854 10.9091V40H97.7124V10.9091H102.854ZM112.42 40.4403C111.038 40.4403 109.793 40.1941 108.685 39.7017C107.586 39.1998 106.715 38.4612 106.071 37.4858C105.437 36.5104 105.119 35.3078 105.119 33.8778C105.119 32.6468 105.347 31.6288 105.801 30.8239C106.256 30.0189 106.876 29.375 107.662 28.892C108.448 28.4091 109.333 28.0445 110.318 27.7983C111.313 27.5426 112.34 27.358 113.401 27.2443C114.679 27.1117 115.716 26.9934 116.511 26.8892C117.307 26.7756 117.884 26.6051 118.244 26.3778C118.614 26.1411 118.798 25.7765 118.798 25.2841V25.1989C118.798 24.1288 118.481 23.3002 117.847 22.7131C117.212 22.1259 116.298 21.8324 115.105 21.8324C113.846 21.8324 112.847 22.107 112.108 22.6562C111.379 23.2055 110.886 23.8542 110.631 24.6023L105.83 23.9205C106.208 22.5947 106.833 21.4867 107.705 20.5966C108.576 19.697 109.641 19.0246 110.901 18.5795C112.16 18.125 113.552 17.8977 115.077 17.8977C116.128 17.8977 117.174 18.0208 118.216 18.267C119.258 18.5133 120.209 18.9205 121.071 19.4886C121.933 20.0473 122.624 20.8097 123.145 21.7756C123.675 22.7415 123.94 23.9489 123.94 25.3977V40H118.997V37.0028H118.827C118.514 37.6089 118.074 38.1771 117.506 38.7074C116.947 39.2282 116.241 39.6496 115.389 39.9716C114.546 40.2841 113.557 40.4403 112.42 40.4403ZM113.756 36.6619C114.788 36.6619 115.683 36.4583 116.44 36.0511C117.198 35.6345 117.78 35.0852 118.188 34.4034C118.604 33.7216 118.812 32.9782 118.812 32.1733V29.6023C118.652 29.7348 118.377 29.858 117.989 29.9716C117.61 30.0852 117.184 30.1847 116.71 30.2699C116.237 30.3551 115.768 30.4309 115.304 30.4972C114.84 30.5634 114.438 30.6203 114.097 30.6676C113.33 30.7718 112.643 30.9422 112.037 31.179C111.431 31.4157 110.953 31.7472 110.602 32.1733C110.252 32.59 110.077 33.1297 110.077 33.7926C110.077 34.7396 110.422 35.4545 111.114 35.9375C111.805 36.4205 112.686 36.6619 113.756 36.6619ZM127.111 40V18.1818H132.097V21.8182H132.324C132.722 20.5587 133.403 19.5881 134.369 18.9062C135.345 18.215 136.457 17.8693 137.707 17.8693C137.991 17.8693 138.309 17.8835 138.659 17.9119C139.019 17.9309 139.317 17.964 139.554 18.0114V22.7415C139.336 22.6657 138.991 22.5994 138.517 22.5426C138.053 22.4763 137.603 22.4432 137.168 22.4432C136.23 22.4432 135.387 22.6468 134.639 23.054C133.901 23.4517 133.318 24.0057 132.892 24.7159C132.466 25.4261 132.253 26.2453 132.253 27.1733V40H127.111ZM149.589 40.4261C147.458 40.4261 145.612 39.9574 144.049 39.0199C142.487 38.0824 141.274 36.7708 140.413 35.0852C139.56 33.3996 139.134 31.4299 139.134 29.1761C139.134 26.9223 139.56 24.9479 140.413 23.2528C141.274 21.5578 142.487 20.2415 144.049 19.304C145.612 18.3665 147.458 17.8977 149.589 17.8977C151.719 17.8977 153.566 18.3665 155.129 19.304C156.691 20.2415 157.898 21.5578 158.751 23.2528C159.612 24.9479 160.043 26.9223 160.043 29.1761C160.043 31.4299 159.612 33.3996 158.751 35.0852C157.898 36.7708 156.691 38.0824 155.129 39.0199C153.566 39.9574 151.719 40.4261 149.589 40.4261ZM149.617 36.3068C150.772 36.3068 151.738 35.9896 152.515 35.3551C153.291 34.7112 153.869 33.8494 154.248 32.7699C154.636 31.6903 154.83 30.4877 154.83 29.1619C154.83 27.8267 154.636 26.6193 154.248 25.5398C153.869 24.4508 153.291 23.5843 152.515 22.9403C151.738 22.2964 150.772 21.9744 149.617 21.9744C148.433 21.9744 147.449 22.2964 146.663 22.9403C145.886 23.5843 145.304 24.4508 144.915 25.5398C144.537 26.6193 144.347 27.8267 144.347 29.1619C144.347 30.4877 144.537 31.6903 144.915 32.7699C145.304 33.8494 145.886 34.7112 146.663 35.3551C147.449 35.9896 148.433 36.3068 149.617 36.3068ZM174.293 40H168.668L178.909 10.9091H185.415L195.67 40H190.045L182.276 16.875H182.048L174.293 40ZM174.477 28.5938H189.818V32.8267H174.477V28.5938ZM202.772 10.9091V40H197.502V10.9091H202.772Z" fill="black"/>
<defs>
<clipPath id="clip0_1291_1306">
<rect width="50" height="50" rx="8" fill="white"/>
</clipPath>
</defs>
</svg>
